name processed_emg_signals												
nRows=120												
nColumns=7												
 												
endheader												
time	RGLTMED	RRF	RADDLONG	RST	RTA	RGM						
1.235	0.025426533	0.033548213	0.054546067	0.021656397	0.068149013	0.050859717						
1.236	0.025455109	0.033436298	0.053976285	0.021878611	0.070394581	0.049843115						
1.237	0.025484075	0.033322066	0.05339785	0.022101962	0.072728102	0.048859852						
1.238	0.025513388	0.033205618	0.052811323	0.022326123	0.075149306	0.047909756						
1.239	0.025543007	0.033087062	0.05221727	0.022550776	0.077657859	0.046992632						
1.24	0.02557289	0.032966502	0.051616258	0.02277561	0.080253366	0.046108261						
1.241	0.025602995	0.032844047	0.051008856	0.023000325	0.082935371	0.045256398						
1.242	0.025633283	0.032719805	0.050395636	0.023224626	0.085703357	0.044436777						
1.243	0.025663713	0.032593885	0.049777168	0.023448229	0.088556744	0.043649108						
1.244	0.025694245	0.032466396	0.049154023	0.023670857	0.091494893	0.042893077						
1.245	0.025724841	0.03233745	0.048526771	0.023892242	0.094517103	0.04216835						
1.246	0.025755463	0.032207158	0.04789598	0.024112124	0.097622613	0.04147457						
1.247	0.025786073	0.032075629	0.047262215	0.024330254	0.100810602	0.04081136						
1.248	0.025816635	0.031942976	0.046626039	0.024546389	0.104080189	0.040178321						
1.249	0.025847113	0.03180931	0.04598801	0.024760296	0.107430435	0.039575035						
1.25	0.025877473	0.031674742	0.045348683	0.024971752	0.110860342	0.039001065						
1.251	0.025907682	0.031539382	0.044708608	0.025180541	0.114368856	0.038455954						
1.252	0.025937707	0.031403342	0.044068328	0.025386457	0.117954866	0.037939228						
1.253	0.025967516	0.03126673	0.04342838	0.025589303	0.121617204	0.037450396						
1.254	0.025997079	0.031129657	0.042789295	0.025788889	0.125354648	0.036988951						
1.255	0.026026368	0.030992231	0.042151598	0.025985037	0.129165925	0.036554367						
1.256	0.026055354	0.030854558	0.041515803	0.026177576	0.133049707	0.036146108						
1.257	0.026084012	0.030716747	0.040882419	0.026366343	0.137004615	0.035763618						
1.258	0.026112315	0.030578903	0.040251945	0.026551185	0.141029222	0.035406334						
1.259	0.026140239	0.030441129	0.03962487	0.026731958	0.145122052	0.035073674						
1.26	0.026167762	0.030303529	0.039001674	0.026908526	0.149281582	0.03476505						
1.261	0.026194861	0.030166204	0.038382828	0.027080761	0.153506244	0.034479858						
1.262	0.026221518	0.030029255	0.037768793	0.027248544	0.157794426	0.034217488						
1.263	0.026247711	0.029892779	0.037160016	0.027411764	0.162144474	0.033977317						
1.264	0.026273425	0.029756875	0.036556938	0.02757032	0.166554695	0.033758718						
1.265	0.026298642	0.029621636	0.035959986	0.027724117	0.171023356	0.033561052						
1.266	0.026323347	0.029487156	0.035369574	0.027873068	0.17554869	0.033383676						
1.267	0.026347525	0.029353527	0.034786108	0.028017096	0.180128892	0.03322594						
1.268	0.026371164	0.029220838	0.03420998	0.02815613	0.184762128	0.033087191						
1.269	0.026394253	0.029089176	0.03364157	0.028290107	0.189446531	0.032966768						
1.27	0.02641678	0.028958627	0.033081245	0.028418972	0.194180206	0.032864009						
1.271	0.026438736	0.028829274	0.032529361	0.028542677	0.198961232	0.032778251						
1.272	0.026460114	0.028701199	0.031986262	0.028661182	0.203787664	0.032708827						
1.273	0.026480904	0.028574479	0.031452277	0.028774452	0.208657534	0.03265507						
1.274	0.026501103	0.028449193	0.030927723	0.028882462	0.213568854	0.032616313						
1.275	0.026520703	0.028325414	0.030412907	0.028985192	0.218519618	0.03259189						
1.276	0.026539702	0.028203214	0.02990812	0.029082629	0.223507805	0.032581137						
1.277	0.026558095	0.028082663	0.02941364	0.029174767	0.22853138	0.03258339						
1.278	0.026575881	0.027963828	0.028929735	0.029261605	0.233588296	0.032597992						
1.279	0.026593058	0.027846774	0.028456658	0.02934315	0.238676495	0.032624288						
1.28	0.026609624	0.027731563	0.02799465	0.029419413	0.243793914	0.032661627						
1.281	0.02662558	0.027618255	0.027543938	0.029490414	0.248938483	0.032709365						
1.282	0.026640927	0.027506908	0.027104739	0.029556175	0.254108128	0.032766863						
1.283	0.026655665	0.027397575	0.026677254	0.029616728	0.259300774	0.032833491						
1.284	0.026669798	0.027290309	0.026261674	0.029672105	0.264514345	0.032908625						
1.285	0.026683326	0.02718516	0.025858177	0.029722349	0.269746768	0.032991649						
1.286	0.026696253	0.027082173	0.025466929	0.029767504	0.27499597	0.033081957						
1.287	0.026708583	0.026981394	0.025088082	0.02980762	0.280259886	0.033178952						
1.288	0.026720318	0.026882863	0.024721778	0.029842753	0.285536454	0.033282048						
1.289	0.026731463	0.026786619	0.024368146	0.029872963	0.290823624	0.033390669						
1.29	0.026742023	0.026692698	0.024027305	0.029898315	0.296119348	0.033504252						
1.291	0.026752001	0.026601134	0.023699359	0.029918876	0.301421594	0.033622244						
1.292	0.026761402	0.026511956	0.023384404	0.029934721	0.306728335	0.033744105						
1.293	0.026770231	0.026425193	0.023082522	0.029945926	0.31203756	0.03386931						
1.294	0.026778493	0.02634087	0.022793786	0.029952571	0.317347267	0.033997345						
1.295	0.026786192	0.026259009	0.022518257	0.029954742	0.322655468	0.03412771						
1.296	0.026793334	0.02617963	0.022255985	0.029952526	0.327960188	0.034259922						
1.297	0.026799922	0.026102748	0.02200701	0.029946015	0.333259467	0.034393509						
1.298	0.026805962	0.02602838	0.021771362	0.029935304	0.338551358	0.034528018						
1.299	0.026811457	0.025956536	0.021549059	0.029920489	0.343833929	0.034663009						
1.3	0.026816412	0.025887225	0.021340111	0.029901671	0.349105263	0.034798057						
1.301	0.026820831	0.025820453	0.021144518	0.029878953	0.354363458	0.034932755						
1.302	0.026824717	0.025756224	0.020962268	0.02985244	0.359606627	0.035066711						
1.303	0.026828073	0.025694539	0.020793342	0.029822238	0.364832899	0.035199551						
1.304	0.026830903	0.025635397	0.020637712	0.029788457	0.370040418	0.035330914						
1.305	0.026833208	0.025578794	0.020495338	0.029751208	0.375227343	0.03546046						
1.306	0.026834991	0.025524723	0.020366174	0.029710603	0.380391847	0.035587863						
1.307	0.026836253	0.025473176	0.020250165	0.029666756	0.385532121	0.035712815						
1.308	0.026836996	0.025424142	0.020147245	0.02961978	0.390646369	0.035835024						
1.309	0.026837218	0.025377608	0.020057343	0.029569791	0.395732811	0.035954217						
1.31	0.026836921	0.025333558	0.019980378	0.029516904	0.40078968	0.036070135						
1.311	0.026836103	0.025291975	0.019916261	0.029461236	0.405815224	0.036182537						
1.312	0.026834762	0.025252838	0.019864896	0.029402903	0.410807708	0.036291201						
1.313	0.026832898	0.025216127	0.019826179	0.029342018	0.415765407	0.036395918						
1.314	0.026830506	0.025181817	0.019799998	0.029278699	0.420686612	0.036496498						
1.315	0.026827583	0.025149883	0.019786235	0.029213059	0.425569626	0.036592766						
1.316	0.026824124	0.025120297	0.019784764	0.02914521	0.430412768	0.036684565						
1.317	0.026820126	0.025093031	0.019795453	0.029075266	0.435214367	0.036771752						
1.318	0.026815581	0.025068053	0.019818161	0.029003336	0.439972767	0.0368542						
1.319	0.026810484	0.02504533	0.019852744	0.028929528	0.444686323	0.036931798						
1.32	0.026804827	0.02502483	0.019899048	0.02885395	0.449353403	0.037004451						
1.321	0.026798602	0.025006515	0.019956915	0.028776705	0.453972387	0.037072076						
1.322	0.026791799	0.02499035	0.02002618	0.028697896	0.458541669	0.037134608						
1.323	0.026784411	0.024976295	0.020106673	0.02861762	0.463059652	0.037191993						
1.324	0.026776426	0.024964311	0.020198216	0.028535973	0.467524754	0.037244192						
1.325	0.026767834	0.024954357	0.020300627	0.02845305	0.471935404	0.037291181						
1.326	0.026758623	0.02494639	0.020413719	0.028368938	0.476290042	0.037332947						
1.327	0.02674878	0.024940368	0.020537299	0.028283724	0.480587121	0.03736949						
1.328	0.026738295	0.024936246	0.020671167	0.02819749	0.484825109	0.037400822						
1.329	0.026727152	0.024933978	0.020815119	0.028110315	0.489002485	0.037426967						
1.33	0.02671534	0.024933518	0.020968948	0.028022272	0.493117739	0.037447961						
1.331	0.026702842	0.024934818	0.021132439	0.027933433	0.49716938	0.03746385						
1.332	0.026689646	0.024937831	0.021305375	0.027843861	0.501155927	0.03747469						
1.333	0.026675737	0.024942507	0.021487531	0.027753621	0.505075915	0.037480548						
1.334	0.026661099	0.024948797	0.02167868	0.027662767	0.508927896	0.0374815						
1.335	0.026645718	0.024956649	0.021878591	0.027571353	0.512710436	0.03747763						
1.336	0.026629579	0.024966012	0.022087027	0.027479428	0.516422121	0.037469032						
1.337	0.026612667	0.024976836	0.022303747	0.027387033	0.520061553	0.037455807						
1.338	0.026594967	0.024989065	0.022528508	0.027294209	0.523627354	0.037438064						
1.339	0.026576463	0.025002649	0.02276106	0.027200988	0.527118165	0.037415919						
1.34	0.026557143	0.025017532	0.023001151	0.027107402	0.530532651	0.037389495						
1.341	0.026536992	0.02503366	0.023248525	0.027013473	0.533869498	0.037358919						
1.342	0.026515996	0.02505098	0.023502923	0.026919223	0.537127417	0.037324327						
1.343	0.026494143	0.025069435	0.023764082	0.026824668	0.540305142	0.037285858						
1.344	0.026471421	0.02508897	0.024031734	0.026729818	0.543401436	0.037243655						
1.345	0.026447818	0.025109529	0.024305611	0.026634681	0.546415091	0.037197866						
1.346	0.026423324	0.025131056	0.024585439	0.026539259	0.549344927	0.037148644						
1.347	0.02639793	0.025153495	0.024870942	0.026443551	0.552189796	0.037096144						
1.348	0.026371628	0.025176789	0.025161842	0.026347551	0.554948585	0.037040525						
1.349	0.026344411	0.025200881	0.025457858	0.026251251	0.557620213	0.036981945						
1.35	0.026316273	0.025225715	0.025758704	0.026154636	0.560203638	0.036920569						
1.351	0.02628721	0.025251235	0.026064094	0.026057692	0.562697856	0.036856559						
1.352	0.02625722	0.025277383	0.026373738	0.025960397	0.565101904	0.036790082						
1.353	0.026226303	0.025304104	0.026687346	0.025862729	0.56741486	0.036721302						
1.354	0.026194459	0.02533134	0.027004624	0.025764662	0.569635846	0.036650387						
